<?xml version="1.0" standalone="no"?>
<!DOCTYPE svg PUBLIC "-//W3C//DTD SVG 20010904//EN"
 "http://www.w3.org/TR/2001/REC-SVG-20010904/DTD/svg10.dtd">
<svg  version="1.0" xmlns="http://www.w3.org/2000/svg"
               width="360.000000pt" height="360.000000pt" viewBox="0 0 360.000000 360.000000"
               preserveAspectRatio="xMidYMid meet">

               <g transform="translate(0.000000,360.000000) scale(0.100000,-0.100000)"
                    fill="#000000" stroke="none">
                    <path d="M914 2565 c-4 -9 22 -64 62 -133 249 -429 344 -594 561 -972 167
          -292 249 -426 262 -428 14 -2 42 39 130 193 l112 196 -2 157 c-1 86 -4 163 -6
          170 -12 31 -38 0 -129 -158 -54 -93 -101 -170 -104 -170 -8 0 -73 112 -73 125
          0 7 62 121 139 253 l139 242 88 0 88 0 -1 -147 c-1 -193 -2 -183 14 -183 13 0
          296 485 296 508 0 9 -80 12 -303 12 l-302 0 -133 -227 c-73 -126 -155 -266
          -182 -313 l-50 -85 0 135 0 135 99 170 c54 93 96 175 94 182 -4 9 -55 13 -200
          15 l-195 3 -35 63 -35 62 665 0 c620 0 665 1 679 18 32 35 99 156 96 171 -3
          14 -91 16 -886 19 -785 2 -883 0 -888 -13z m1756 -12 c-1 -15 -26 -40 -46 -47
          -12 -4 -34 -18 -48 -31 l-27 -25 -652 0 c-574 0 -655 -2 -675 -16 -12 -8 -22
          -19 -22 -25 0 -5 24 -50 53 -99 l52 -89 193 0 c105 -1 192 -5 192 -9 0 -8 -18
          -22 -66 -51 -41 -25 -163 -216 -170 -268 -9 -64 -12 -68 -33 -42 -42 54 -193
          287 -296 456 -87 144 -116 184 -139 192 -27 10 -55 37 -56 54 0 4 392 7 870 7
          479 0 870 -3 870 -7z m-251 -362 c-51 -39 -64 -41 -286 -41 -120 0 -223 4
          -228 8 -6 4 -10 13 -9 20 1 6 2 17 3 22 1 6 99 10 272 10 266 0 271 0 248 -19z
          m-550 -143 c-11 -29 -27 -75 -36 -103 -8 -27 -45 -111 -83 -186 -81 -163 -84
          -173 -68 -191 7 -7 21 -29 32 -48 37 -70 80 -140 86 -140 3 0 21 26 40 58 18
          31 50 83 69 115 48 78 71 117 87 147 12 22 14 8 14 -112 0 -125 -2 -138 -19
          -148 -11 -5 -33 -34 -49 -62 -16 -29 -51 -92 -77 -140 -65 -118 -66 -118 -142
          22 -120 221 -140 254 -169 273 l-31 21 17 31 c10 16 48 82 85 145 37 63 87
          150 112 193 25 42 49 77 54 77 6 0 8 4 4 9 -3 5 1 16 9 24 8 8 12 18 8 22 -4
          5 1 5 10 2 11 -4 19 0 23 14 4 10 11 17 16 14 5 -4 9 -1 9 4 0 6 4 11 10 11 5
          0 1 -24 -11 -52z"/>
               </g>
          </svg>
